HIERARCHY
ROOT Root
{
	OFFSET 0.00000 0.00000 0.00000
	CHANNELS 6 Xposition Yposition Zposition Zrotation Xrotation Yrotation
	JOINT Hips
	{
		OFFSET 0 0 0	
		CHANNELS 3 Zrotation Xrotation Yrotation
		JOINT Spine
		{
			OFFSET 0 4 0	
			CHANNELS 3 Zrotation Xrotation Yrotation
			JOINT Spine1
			{
				OFFSET 0 19.4 0	
				CHANNELS 3 Zrotation Xrotation Yrotation
				JOINT Spine2
				{
					OFFSET 0 16.6 0	
					CHANNELS 3 Zrotation Xrotation Yrotation
					JOINT LeftCollar
					{
						OFFSET 0 10 0	
						CHANNELS 3 Zrotation Xrotation Yrotation
						JOINT LeftArm
						{
							OFFSET 15.6 -2 3	
							CHANNELS 3 Zrotation Xrotation Yrotation
							JOINT LeftForeArm
							{
								OFFSET 3.5 -27 -1	
								CHANNELS 3 Zrotation Xrotation Yrotation
								JOINT LeftHand
								{
									OFFSET 1 -27 1	
									CHANNELS 3 Zrotation Xrotation Yrotation
									End Site
									{
										OFFSET 0 -15 0
									}
								}
							}
						}
					}
					JOINT RightCollar
					{
						OFFSET 0 10 0	
						CHANNELS 3 Zrotation Xrotation Yrotation
						JOINT RightArm
						{
							OFFSET -15.6 -2 3	
							CHANNELS 3 Zrotation Xrotation Yrotation
							JOINT RightForeArm
							{
								OFFSET -3.5 -27 -1	
								CHANNELS 3 Zrotation Xrotation Yrotation
								JOINT RightHand
								{
									OFFSET -1 -27 1	
									CHANNELS 3 Zrotation Xrotation Yrotation
									End Site
									{
										OFFSET 0 -15 0
									}
								}
							}
						}
					}
					JOINT Neck
					{
						OFFSET 0 10 0	
						CHANNELS 3 Zrotation Xrotation Yrotation
						JOINT Head
						{
							OFFSET 0 12.7 3	
							CHANNELS 3 Zrotation Xrotation Yrotation
							End Site
							{
								OFFSET 0 12.7 3
							}
						}
					}
				}
			}
		}
	}
	JOINT LeftHip
	{
		OFFSET 0 0 0	
		CHANNELS 3 Zrotation Xrotation Yrotation
		JOINT LeftUpLeg
		{
			OFFSET 8.8 -6 0	
			CHANNELS 3 Zrotation Xrotation Yrotation
			JOINT LeftLeg
			{
				OFFSET 0 -39 2	
				CHANNELS 3 Zrotation Xrotation Yrotation
				JOINT LeftFoot
				{
					OFFSET 0 -43 -2	
					CHANNELS 3 Zrotation Xrotation Yrotation
					JOINT LeftFootFront
					{
						OFFSET 0 -7 8.5	
						CHANNELS 3 Zrotation Xrotation Yrotation
						End Site
						{
							OFFSET 0 -0.5 9
						}
					}
				}
				JOINT LeftHeel
				{
					OFFSET 0 -43 -2	
					CHANNELS 3 Zrotation Xrotation Yrotation
					End Site
					{
						OFFSET 0 -7.5 -5
					}
				}
			}
		}
	}
	JOINT RightHip
	{
		OFFSET 0 0 0	
		CHANNELS 3 Zrotation Xrotation Yrotation
		JOINT RightUpLeg
		{
			OFFSET -8.8 -6 0	
			CHANNELS 3 Zrotation Xrotation Yrotation
			JOINT RightLeg
			{
				OFFSET 0 -39 2	
				CHANNELS 3 Zrotation Xrotation Yrotation
				JOINT RightFoot
				{
					OFFSET 0 -43 -2	
					CHANNELS 3 Zrotation Xrotation Yrotation
					JOINT RightFootFront
					{
						OFFSET 0 -7 8.5	
						CHANNELS 3 Zrotation Xrotation Yrotation
						End Site
						{
							OFFSET 0 -0.5 9
						}
					}
				}
				JOINT RightHeel
				{
					OFFSET 0 -43 -2	
					CHANNELS 3 Zrotation Xrotation Yrotation
					End Site
					{
						OFFSET 0 -7.5 -5
					}
				}
			}
		}
	}
}
MOTION
Frames: 25
Frame Time: 0.002
0 95.801 0 -0 0 -0 -0.1714 -0.48407 -0.90425 0.014256 18.178 -2.2096 0.014256 18.178 -2.2096 -0.036986 15.27 -1.8445 -0 0 -0 -0.4533 -43.356 -53.838 6.6297 2.717 -18.881 -0 0 -0 -0 0 -0 1.8466 -44.048 58.671 -7.1477 4.3779 13.624 -0 0 -0 -4.1194 16.216 0.59717 -4.1194 16.216 0.59717 -0.1714 -0.48407 -0.90425 6.6056 -14.919 -3.619 -9.7478 21.181 9.8328 -0 0 -0 -0 0 -0 -0 0 -0 -0.1714 -0.48407 -0.90425 0.76552 -15.357 4.4029 -0.67351 17.74 -4.4763 -0 0 -0 -0 0 -0 -0 0 -0 
0 95.801 0 -0 0 -0 -0.17325 -0.49749 -0.91562 8.7062e-05 18.194 -2.1953 8.7062e-05 18.194 -2.1953 -0.048546 15.283 -1.8329 -0 0 -0 -0.40147 -43.364 -53.808 6.6489 2.7371 -18.847 -0 0 -0 -0 0 -0 1.8364 -44.071 58.629 -7.1548 4.386 13.601 -0 0 -0 -4.1055 16.21 0.59026 -4.1055 16.21 0.59026 -0.17325 -0.49749 -0.91562 6.6219 -14.927 -3.6055 -9.775 21.23 9.8419 -0 0 -0 -0 0 -0 -0 0 -0 -0.17325 -0.49749 -0.91562 0.7814 -15.372 4.4113 -0.68194 17.789 -4.4562 -0 0 -0 -0 0 -0 -0 0 -0 
0 95.801 0 -0 0 -0 -0.17509 -0.51035 -0.92712 -0.014109 18.21 -2.181 -0.014109 18.21 -2.181 -0.060127 15.296 -1.8213 -0 0 -0 -0.34921 -43.372 -53.777 6.6678 2.7569 -18.814 -0 0 -0 -0 0 -0 1.8259 -44.094 58.586 -7.1615 4.3939 13.577 -0 0 -0 -4.0917 16.205 0.58334 -4.0917 16.205 0.58334 -0.17509 -0.51035 -0.92712 6.6381 -14.936 -3.5923 -9.8022 21.279 9.8518 -0 0 -0 -0 0 -0 -0 0 -0 -0.17509 -0.51035 -0.92712 0.7975 -15.387 4.4205 -0.69056 17.839 -4.4367 -0 0 -0 -0 0 -0 -0 0 -0 
0 95.801 0 -0 0 -0 -0.1769 -0.52267 -0.93874 -0.028318 18.225 -2.1666 -0.028318 18.225 -2.1666 -0.071715 15.309 -1.8096 -0 0 -0 -0.29653 -43.38 -53.746 6.6863 2.7765 -18.781 -0 0 -0 -0 0 -0 1.815 -44.118 58.543 -7.1678 4.4016 13.554 -0 0 -0 -4.078 16.199 0.57641 -4.078 16.199 0.57641 -0.1769 -0.52267 -0.93874 6.6541 -14.945 -3.5795 -9.8294 21.328 9.8623 -0 0 -0 -0 0 -0 -0 0 -0 -0.1769 -0.52267 -0.93874 0.8138 -15.402 4.4305 -0.69931 17.888 -4.4179 -0 0 -0 -0 0 -0 -0 0 -0 
0 95.801 0 -0 0 -0 -0.1787 -0.53438 -0.95049 -0.042533 18.24 -2.1522 -0.042533 18.24 -2.1522 -0.083305 15.322 -1.7978 -0 0 -0 -0.24357 -43.389 -53.715 6.7044 2.7959 -18.75 -0 0 -0 -0 0 -0 1.8036 -44.141 58.5 -7.1737 4.4093 13.53 -0 0 -0 -4.0644 16.194 0.56946 -4.0644 16.194 0.56946 -0.1787 -0.53438 -0.95049 6.67 -14.954 -3.5671 -9.8565 21.377 9.8734 -0 0 -0 -0 0 -0 -0 0 -0 -0.1787 -0.53438 -0.95049 0.83032 -15.419 4.4413 -0.7082 17.938 -4.3998 -0 0 -0 -0 0 -0 -0 0 -0 
0 95.801 0 -0 0 -0 -0.18047 -0.5455 -0.96241 -0.056751 18.255 -2.1377 -0.056751 18.255 -2.1377 -0.094895 15.334 -1.786 -0 0 -0 -0.19025 -43.398 -53.683 6.7222 2.8151 -18.719 -0 0 -0 -0 0 -0 1.7918 -44.165 58.456 -7.1791 4.4167 13.507 -0 0 -0 -4.0509 16.189 0.56249 -4.0509 16.189 0.56249 -0.18047 -0.5455 -0.96241 6.6858 -14.964 -3.5551 -9.8837 21.426 9.8852 -0 0 -0 -0 0 -0 -0 0 -0 -0.18047 -0.5455 -0.96241 0.84704 -15.436 4.4531 -0.7172 17.988 -4.3826 -0 0 -0 -0 0 -0 -0 0 -0 
0 95.801 0 -0 0 -0 -0.18221 -0.55605 -0.97448 -0.070975 18.27 -2.1231 -0.070975 18.27 -2.1231 -0.10649 15.347 -1.7741 -0 0 -0 -0.13666 -43.407 -53.65 6.7397 2.834 -18.689 -0 0 -0 -0 0 -0 1.7796 -44.189 58.412 -7.1842 4.424 13.483 -0 0 -0 -4.0376 16.184 0.55551 -4.0376 16.184 0.55551 -0.18221 -0.55605 -0.97448 6.7014 -14.975 -3.5435 -9.9108 21.475 9.8977 -0 0 -0 -0 0 -0 -0 0 -0 -0.18221 -0.55605 -0.97448 0.86391 -15.454 4.4658 -0.72626 18.039 -4.3663 -0 0 -0 -0 0 -0 -0 0 -0 
0 95.801 0 -0 0 -0 -0.18392 -0.56598 -0.98675 -0.085195 18.284 -2.1084 -0.085195 18.284 -2.1084 -0.11807 15.359 -1.7622 -0 0 -0 -0.082815 -43.416 -53.618 6.7569 2.8528 -18.661 -0 0 -0 -0 0 -0 1.7668 -44.213 58.367 -7.1889 4.4311 13.459 -0 0 -0 -4.0243 16.179 0.54851 -4.0243 16.179 0.54851 -0.18392 -0.56598 -0.98675 6.717 -14.986 -3.5322 -9.938 21.523 9.9108 -0 0 -0 -0 0 -0 -0 0 -0 -0.18392 -0.56598 -0.98675 0.88096 -15.473 4.4795 -0.73539 18.089 -4.3509 -0 0 -0 -0 0 -0 -0 0 -0 
0 95.801 0 -0 0 -0 -0.18556 -0.57534 -0.9992 -0.099413 18.299 -2.0937 -0.099413 18.299 -2.0937 -0.12965 15.371 -1.7502 -0 0 -0 -0.028787 -43.425 -53.585 6.7738 2.8714 -18.633 -0 0 -0 -0 0 -0 1.7535 -44.236 58.322 -7.1931 4.438 13.436 -0 0 -0 -4.0113 16.175 0.5415 -4.0113 16.175 0.5415 -0.18556 -0.57534 -0.9992 6.7324 -14.998 -3.5213 -9.9653 21.571 9.9245 -0 0 -0 -0 0 -0 -0 0 -0 -0.18556 -0.57534 -0.9992 0.89815 -15.493 4.4943 -0.74456 18.14 -4.3366 -0 0 -0 -0 0 -0 -0 0 -0 
0 95.801 0 -0 0 -0 -0.18718 -0.5841 -1.0118 -0.11361 18.313 -2.0789 -0.11361 18.313 -2.0789 -0.14122 15.382 -1.7381 -0 0 -0 0.025412 -43.434 -53.551 6.7905 2.8897 -18.606 -0 0 -0 -0 0 -0 1.7396 -44.26 58.277 -7.197 4.4447 13.412 -0 0 -0 -3.9984 16.171 0.53447 -3.9984 16.171 0.53447 -0.18718 -0.5841 -1.0118 6.7478 -15.01 -3.5107 -9.9926 21.619 9.9388 -0 0 -0 -0 0 -0 -0 0 -0 -0.18718 -0.5841 -1.0118 0.91549 -15.514 4.5102 -0.75373 18.192 -4.3232 -0 0 -0 -0 0 -0 -0 0 -0 
0 95.801 0 -0 0 -0 -0.18875 -0.59224 -1.0247 -0.1278 18.326 -2.064 -0.1278 18.326 -2.064 -0.15277 15.394 -1.726 -0 0 -0 0.079792 -43.443 -53.518 6.807 2.9079 -18.579 -0 0 -0 -0 0 -0 1.7252 -44.283 58.23 -7.2003 4.4512 13.388 -0 0 -0 -3.9857 16.167 0.52744 -3.9857 16.167 0.52744 -0.18875 -0.59224 -1.0247 6.763 -15.023 -3.5004 -10.02 21.667 9.9537 -0 0 -0 -0 0 -0 -0 0 -0 -0.18875 -0.59224 -1.0247 0.93296 -15.535 4.5271 -0.76291 18.243 -4.3109 -0 0 -0 -0 0 -0 -0 0 -0 
0 95.801 0 -0 0 -0 -0.19027 -0.59979 -1.0378 -0.14198 18.339 -2.049 -0.14198 18.339 -2.049 -0.1643 15.405 -1.7138 -0 0 -0 0.13426 -43.451 -53.484 6.8233 2.9259 -18.554 -0 0 -0 -0 0 -0 1.71 -44.306 58.183 -7.2033 4.4575 13.364 -0 0 -0 -3.9732 16.164 0.52038 -3.9732 16.164 0.52039 -0.19027 -0.59979 -1.0378 6.7782 -15.036 -3.4904 -10.047 21.715 9.969 -0 0 -0 -0 0 -0 -0 0 -0 -0.19027 -0.59979 -1.0378 0.95053 -15.557 4.5453 -0.77203 18.294 -4.2996 -0 0 -0 -0 0 -0 -0 0 -0 
0 95.801 0 -0 0 -0 -0.1917 -0.60673 -1.0512 -0.15614 18.352 -2.034 -0.15614 18.352 -2.034 -0.17582 15.415 -1.7015 -0 0 -0 0.18883 -43.459 -53.449 6.8395 2.9436 -18.529 -0 0 -0 -0 0 -0 1.6942 -44.328 58.136 -7.2058 4.4635 13.339 -0 0 -0 -3.9608 16.161 0.51331 -3.9608 16.161 0.51331 -0.1917 -0.60673 -1.0512 6.7932 -15.05 -3.4805 -10.075 21.762 9.9849 -0 0 -0 -0 0 -0 -0 0 -0 -0.1917 -0.60673 -1.0512 0.96818 -15.58 4.5646 -0.78113 18.346 -4.2894 -0 0 -0 -0 0 -0 -0 0 -0 
0 95.801 0 -0 0 -0 -0.19308 -0.6131 -1.0648 -0.17027 18.364 -2.0188 -0.17027 18.364 -2.0188 -0.18731 15.426 -1.6892 -0 0 -0 0.24344 -43.466 -53.415 6.8554 2.9612 -18.506 -0 0 -0 -0 0 -0 1.6778 -44.35 58.087 -7.2079 4.4693 13.315 -0 0 -0 -3.9487 16.158 0.50621 -3.9487 16.158 0.50621 -0.19308 -0.6131 -1.0648 6.8082 -15.065 -3.4709 -10.103 21.81 10.001 -0 0 -0 -0 0 -0 -0 0 -0 -0.19308 -0.6131 -1.0648 0.98591 -15.604 4.585 -0.79014 18.398 -4.2803 -0 0 -0 -0 0 -0 -0 0 -0 
0 95.801 0 -0 0 -0 -0.19437 -0.61888 -1.0786 -0.1844 18.376 -2.0036 -0.1844 18.376 -2.0036 -0.19879 15.436 -1.6768 -0 0 -0 0.2981 -43.473 -53.381 6.8713 2.9785 -18.483 -0 0 -0 -0 0 -0 1.6606 -44.371 58.038 -7.2095 4.4748 13.29 -0 0 -0 -3.9368 16.156 0.49909 -3.9368 16.156 0.49909 -0.19437 -0.61888 -1.0786 6.8231 -15.08 -3.4615 -10.13 21.857 10.018 -0 0 -0 -0 0 -0 -0 0 -0 -0.19437 -0.61888 -1.0786 1.0037 -15.629 4.6067 -0.79906 18.451 -4.2722 -0 0 -0 -0 0 -0 -0 0 -0 
0 95.801 0 -0 0 -0 -0.19559 -0.62409 -1.0927 -0.1985 18.388 -1.9882 -0.1985 18.388 -1.9882 -0.21025 15.445 -1.6642 -0 0 -0 0.35277 -43.479 -53.346 6.887 2.9957 -18.46 -0 0 -0 -0 0 -0 1.6427 -44.392 57.989 -7.2107 4.4801 13.264 -0 0 -0 -3.9252 16.155 0.49195 -3.9252 16.155 0.49195 -0.19559 -0.62409 -1.0927 6.8379 -15.096 -3.4522 -10.158 21.904 10.035 -0 0 -0 -0 0 -0 -0 0 -0 -0.19559 -0.62409 -1.0927 1.0215 -15.654 4.6295 -0.80787 18.503 -4.2653 -0 0 -0 -0 0 -0 -0 0 -0 
0 95.801 0 -0 0 -0 -0.19672 -0.62873 -1.107 -0.21255 18.398 -1.9728 -0.21255 18.398 -1.9728 -0.22166 15.454 -1.6517 -0 0 -0 0.40739 -43.485 -53.311 6.9027 3.0126 -18.438 -0 0 -0 -0 0 -0 1.6241 -44.412 57.938 -7.2114 4.4851 13.239 -0 0 -0 -3.9138 16.154 0.48478 -3.9137 16.154 0.48478 -0.19672 -0.62873 -1.107 6.8526 -15.112 -3.443 -10.186 21.951 10.052 -0 0 -0 -0 0 -0 -0 0 -0 -0.19672 -0.62873 -1.107 1.0393 -15.681 4.6534 -0.81653 18.556 -4.2594 -0 0 -0 -0 0 -0 -0 0 -0 
0 95.801 0 -0 0 -0 -0.19777 -0.63279 -1.1217 -0.22658 18.409 -1.9572 -0.22658 18.409 -1.9572 -0.23305 15.463 -1.639 -0 0 -0 0.46191 -43.49 -53.276 6.9182 3.0293 -18.417 -0 0 -0 -0 0 -0 1.6046 -44.431 57.886 -7.2117 4.4899 13.212 -0 0 -0 -3.9026 16.154 0.47757 -3.9026 16.154 0.47757 -0.19777 -0.63279 -1.1217 6.8673 -15.129 -3.4339 -10.214 21.997 10.07 -0 0 -0 -0 0 -0 -0 0 -0 -0.19777 -0.63279 -1.1217 1.0571 -15.708 4.6786 -0.82505 18.609 -4.2545 -0 0 -0 -0 0 -0 -0 0 -0 
0 95.801 0 -0 0 -0 -0.19872 -0.6363 -1.1366 -0.24057 18.419 -1.9415 -0.24057 18.419 -1.9415 -0.2444 15.471 -1.6262 -0 0 -0 0.51637 -43.493 -53.241 6.9337 3.0458 -18.397 -0 0 -0 -0 0 -0 1.5844 -44.449 57.834 -7.2115 4.4943 13.186 -0 0 -0 -3.8916 16.154 0.47032 -3.8916 16.154 0.47032 -0.19872 -0.6363 -1.1366 6.8818 -15.147 -3.4249 -10.242 22.044 10.088 -0 0 -0 -0 0 -0 -0 0 -0 -0.19872 -0.6363 -1.1366 1.0749 -15.735 4.7049 -0.83339 18.662 -4.2507 -0 0 -0 -0 0 -0 -0 0 -0 
0 95.801 0 -0 0 -0 -0.19955 -0.63929 -1.1517 -0.25452 18.428 -1.9258 -0.25452 18.428 -1.9258 -0.25571 15.479 -1.6133 -0 0 -0 0.57069 -43.496 -53.206 6.9491 3.062 -18.377 -0 0 -0 -0 0 -0 1.5633 -44.466 57.781 -7.2108 4.4984 13.159 -0 0 -0 -3.8809 16.155 0.46303 -3.8809 16.155 0.46303 -0.19955 -0.63929 -1.1517 6.8963 -15.165 -3.4159 -10.27 22.09 10.106 -0 0 -0 -0 0 -0 -0 0 -0 -0.19955 -0.63929 -1.1517 1.0927 -15.764 4.7323 -0.84154 18.715 -4.2479 -0 0 -0 -0 0 -0 -0 0 -0 
0 95.801 0 -0 0 -0 -0.20029 -0.64175 -1.1671 -0.26843 18.437 -1.9099 -0.26843 18.437 -1.9099 -0.26699 15.487 -1.6004 -0 0 -0 0.62492 -43.498 -53.171 6.9644 3.078 -18.357 -0 0 -0 -0 0 -0 1.5414 -44.483 57.726 -7.2096 4.5022 13.131 -0 0 -0 -3.8705 16.156 0.4557 -3.8705 16.156 0.4557 -0.20029 -0.64175 -1.1671 6.9106 -15.183 -3.4069 -10.299 22.137 10.124 -0 0 -0 -0 0 -0 -0 0 -0 -0.20029 -0.64175 -1.1671 1.1103 -15.793 4.7609 -0.84948 18.769 -4.246 -0 0 -0 -0 0 -0 -0 0 -0 
0 95.801 0 -0 0 -0 -0.2009 -0.64366 -1.1828 -0.28228 18.445 -1.8939 -0.28228 18.445 -1.8939 -0.27821 15.494 -1.5873 -0 0 -0 0.67892 -43.499 -53.136 6.9796 3.0938 -18.338 -0 0 -0 -0 0 -0 1.5186 -44.498 57.671 -7.208 4.5057 13.103 -0 0 -0 -3.8603 16.158 0.44831 -3.8603 16.158 0.44831 -0.2009 -0.64366 -1.1828 6.9249 -15.203 -3.398 -10.327 22.183 10.143 -0 0 -0 -0 0 -0 -0 0 -0 -0.2009 -0.64366 -1.1828 1.1279 -15.823 4.7905 -0.8572 18.823 -4.2451 -0 0 -0 -0 0 -0 -0 0 -0 
0 95.801 0 -0 0 -0 -0.2014 -0.64511 -1.1988 -0.29608 18.453 -1.8778 -0.29608 18.453 -1.8778 -0.28939 15.5 -1.5742 -0 0 -0 0.73274 -43.499 -53.101 6.9948 3.1093 -18.319 -0 0 -0 -0 0 -0 1.495 -44.512 57.614 -7.2059 4.5088 13.074 -0 0 -0 -3.8503 16.161 0.44088 -3.8503 16.161 0.44088 -0.2014 -0.64511 -1.1988 6.9391 -15.223 -3.3891 -10.356 22.229 10.161 -0 0 -0 -0 0 -0 -0 0 -0 -0.2014 -0.64511 -1.1988 1.1454 -15.853 4.8212 -0.86469 18.877 -4.2451 -0 0 -0 -0 0 -0 -0 0 -0 
0 95.801 0 -0 0 -0 -0.20177 -0.64604 -1.2149 -0.30983 18.46 -1.8616 -0.30983 18.46 -1.8616 -0.30052 15.506 -1.561 -0 0 -0 0.78634 -43.497 -53.065 7.01 3.1246 -18.301 -0 0 -0 -0 0 -0 1.4706 -44.525 57.556 -7.2033 4.5116 13.045 -0 0 -0 -3.8406 16.164 0.4334 -3.8406 16.164 0.4334 -0.20177 -0.64604 -1.2149 6.9532 -15.243 -3.3803 -10.385 22.275 10.18 -0 0 -0 -0 0 -0 -0 0 -0 -0.20177 -0.64604 -1.2149 1.1628 -15.884 4.8529 -0.87192 18.931 -4.2459 -0 0 -0 -0 0 -0 -0 0 -0 
0 95.801 0 -0 0 -0 -0.20202 -0.6465 -1.2313 -0.3235 18.467 -1.8453 -0.3235 18.467 -1.8453 -0.31158 15.512 -1.5477 -0 0 -0 0.83967 -43.495 -53.03 7.0251 3.1396 -18.283 -0 0 -0 -0 0 -0 1.4451 -44.537 57.498 -7.2002 4.514 13.015 -0 0 -0 -3.8312 16.168 0.42585 -3.8312 16.168 0.42585 -0.20202 -0.6465 -1.2313 6.9672 -15.264 -3.3716 -10.414 22.321 10.199 -0 0 -0 -0 0 -0 -0 0 -0 -0.20202 -0.6465 -1.2313 1.18 -15.916 4.8856 -0.8789 18.985 -4.2476 -0 0 -0 -0 0 -0 -0 0 -0 
